<svg id="Layer_1" data-name="Layer 1" xmlns="http://www.w3.org/2000/svg" viewBox="0 0 84 33.8"><defs><style>.cls-1{fill:none;stroke:#ff0;stroke-width:0.5px;}</style></defs><path d="M20.57,12.14a7.44,7.44,0,0,1-2.26,5.46,7.48,7.48,0,0,1-5.46,2.26H8.56V25H2.84V4.42h10a7.44,7.44,0,0,1,5.46,2.26A7.44,7.44,0,0,1,20.57,12.14Z"/><path d="M31.4,25A8.76,8.76,0,0,1,25,22.35a8.76,8.76,0,0,1-2.66-6.44V4.42H40.48V15.91a8.76,8.76,0,0,1-2.66,6.44A8.74,8.74,0,0,1,31.4,25Z"/><path d="M47.93,4.42V19.3h12V25H42.21V4.42Z"/><path d="M79.39,12.14a7.44,7.44,0,0,1-2.26,5.46,7.48,7.48,0,0,1-5.46,2.26H67.38V25H61.66V4.42h10a7.44,7.44,0,0,1,5.46,2.26A7.44,7.44,0,0,1,79.39,12.14Z"/><path class="cls-1" d="M22.65,9.68a7.45,7.45,0,0,1-2.27,5.46,7.4,7.4,0,0,1-5.45,2.26H10.64v5.16H4.92V2h10a7.44,7.44,0,0,1,5.45,2.26A7.45,7.45,0,0,1,22.65,9.68Z"/><path class="cls-1" d="M33.47,22.56A8.74,8.74,0,0,1,27,19.89a8.77,8.77,0,0,1-2.67-6.44V2H42.56V13.45a8.8,8.8,0,0,1-2.66,6.44A8.76,8.76,0,0,1,33.47,22.56Z"/><path class="cls-1" d="M50,2V16.84H62v5.72H44.29V2Z"/><path class="cls-1" d="M81.47,9.68a7.48,7.48,0,0,1-2.26,5.46,7.44,7.44,0,0,1-5.46,2.26H69.46v5.16H63.74V2h10a7.48,7.48,0,0,1,5.46,2.26A7.48,7.48,0,0,1,81.47,9.68Z"/><path d="M4.35,31.46V28H6.53v.27H4.65v1.27H6.5v.27H4.65v1.36H6.53v.27Z"/><path d="M8.39,31.12l.16-.19a1,1,0,0,0,.81.36c.41,0,.66-.21.66-.5,0-.68-1.57-.3-1.57-1.19,0-.38.32-.69.88-.69a1.16,1.16,0,0,1,.9.36l-.15.19a1,1,0,0,0-.75-.33c-.38,0-.61.2-.61.46,0,.62,1.56.24,1.56,1.2,0,.4-.31.73-.93.73A1.2,1.2,0,0,1,8.39,31.12Z"/><path d="M12.38,31V29.21H12V29h.41v-.68h.28V29h.5v.24h-.5v1.73c0,.2.08.34.25.34a.39.39,0,0,0,.28-.12l.11.21a.59.59,0,0,1-.43.15C12.54,31.52,12.38,31.32,12.38,31Z"/><path d="M16.79,31.46v-.37a1.27,1.27,0,0,1-.9.43.7.7,0,0,1-.79-.8V29h.27v1.69c0,.48.24.62.61.62a1.09,1.09,0,0,0,.81-.41V29h.26v2.49Z"/><path d="M21.08,31.46v-.4a1,1,0,0,1-.86.46c-.66,0-1.11-.5-1.11-1.3a1.16,1.16,0,0,1,1.11-1.31,1,1,0,0,1,.86.46V28h.28v3.44Zm0-.62V29.6a1,1,0,0,0-.82-.45c-.55,0-.87.46-.87,1.07s.32,1.06.87,1.06A1,1,0,0,0,21.08,30.84Z"/><path d="M23.48,28.37a.2.2,0,0,1,.2-.2.2.2,0,0,1,.21.2.21.21,0,1,1-.41,0Zm.07,3.09V29h.27v2.49Z"/><path d="M25.87,30.21a1.2,1.2,0,1,1,1.19,1.31A1.2,1.2,0,0,1,25.87,30.21Zm2.1,0a.92.92,0,1,0-1.82,0,.92.92,0,1,0,1.82,0Z"/><path d="M33,31.46V28h2.18v.27H33.3v1.27h1.85v.27H33.3v1.63Z"/><path d="M37,30.21a1.2,1.2,0,1,1,1.19,1.31A1.2,1.2,0,0,1,37,30.21Zm2.1,0a.92.92,0,1,0-1.82,0,.92.92,0,1,0,1.82,0Z"/><path d="M41.5,31V29.21h-.41V29h.41v-.68h.28V29h.5v.24h-.5v1.73c0,.2.08.34.25.34a.39.39,0,0,0,.28-.12l.11.21a.59.59,0,0,1-.43.15C41.66,31.52,41.5,31.32,41.5,31Z"/><path d="M44.09,30.21a1.2,1.2,0,1,1,2.39,0,1.2,1.2,0,1,1-2.39,0Zm2.1,0a.92.92,0,1,0-.91,1.07A1,1,0,0,0,46.19,30.21Z"/><path d="M48.53,32.09l.16-.21a.94.94,0,0,0,.83.35.75.75,0,0,0,.84-.79V31a1,1,0,0,1-.86.47c-.66,0-1.11-.5-1.11-1.3a1.15,1.15,0,0,1,1.11-1.3,1.06,1.06,0,0,1,.86.46V29h.28v2.47a1,1,0,0,1-1.12,1A1.2,1.2,0,0,1,48.53,32.09Zm1.83-1.28V29.6a1,1,0,0,0-.82-.45c-.55,0-.87.46-.87,1.06s.32,1.06.87,1.06A1,1,0,0,0,50.36,30.81Z"/><path d="M52.82,31.46V29h.27v.43a1.07,1.07,0,0,1,.84-.48v.29H53.8a1,1,0,0,0-.71.44v1.82Z"/><path d="M57.65,31.46v-.4a1.07,1.07,0,0,1-.87.46c-.66,0-1.11-.5-1.11-1.3a1.16,1.16,0,0,1,1.11-1.31,1.06,1.06,0,0,1,.87.46V29h.27v2.49Zm0-.62V29.6a1,1,0,0,0-.82-.45c-.55,0-.87.46-.87,1.07s.32,1.06.87,1.06A1,1,0,0,0,57.65,30.84Z"/><path d="M60.2,31.46V29.21h-.41V29h.41v-.23c0-.49.27-.77.68-.77a.62.62,0,0,1,.33.08l-.08.22a.39.39,0,0,0-.23-.06c-.28,0-.42.2-.42.53V29H61v.24h-.5v2.25Zm1.21-3.09a.21.21,0,0,1,.2-.2.2.2,0,0,1,.21.2.21.21,0,0,1-.21.21A.22.22,0,0,1,61.41,28.37Zm.07,3.09V29h.27v2.49Z"/><path d="M63.8,30.21a1.2,1.2,0,0,1,1.2-1.3,1.05,1.05,0,0,1,.89.42l-.19.16a.8.8,0,0,0-.68-.34,1.07,1.07,0,0,0,0,2.13.79.79,0,0,0,.68-.35l.19.16a1,1,0,0,1-.89.43A1.21,1.21,0,0,1,63.8,30.21Z"/><path d="M67.7,30.21a1.2,1.2,0,1,1,1.19,1.31A1.2,1.2,0,0,1,67.7,30.21Zm2.11,0a.93.93,0,1,0-.92,1.07A1,1,0,0,0,69.81,30.21Z"/><rect x="4.67" y="26.02" width="65.04" height="0.5"/></svg>