<svg id="Layer_1" data-name="Layer 1" xmlns="http://www.w3.org/2000/svg" viewBox="0 0 64.32 64.32"><defs><style>.cls-1,.cls-3{fill:none;stroke-miterlimit:10;}.cls-1{stroke:#fff;}.cls-2{fill:#fff;}.cls-3{stroke:#ff0;}</style></defs><circle class="cls-1" cx="32.16" cy="32.16" r="26.64"/><path class="cls-2" d="M46.63,30.29A11.44,11.44,0,0,1,35.19,41.72H28.83v7.64H20.36V18.85H35.19A11.44,11.44,0,0,1,46.63,30.29Z"/><path class="cls-3" d="M49.71,26.64a11,11,0,0,1-3.08,7.81l-.27.28a11,11,0,0,1-8.09,3.35H31.91v7.64H23.44V15.21H38.27A11.44,11.44,0,0,1,49.71,26.64ZM23.44,18.85m0,26.87,8.47-7.64M23.44,18.85V15.21H38.27A11.44,11.44,0,0,1,49.71,26.64a11,11,0,0,1-3.08,7.81l-.27.28m-14.45,7v4H28.83"/></svg>