<svg id="Layer_1" data-name="Layer 1" xmlns="http://www.w3.org/2000/svg" viewBox="0 0 82.2 34.3"><defs><style>.cls-1{fill:#ff0;}.cls-2{fill:none;stroke:#fff;stroke-width:0.5px;}.cls-3{fill:#fff;}</style></defs><path class="cls-1" d="M19.73,12.14a7.44,7.44,0,0,1-2.26,5.46A7.48,7.48,0,0,1,12,19.86H7.72V25H2V4.42H12a7.44,7.44,0,0,1,5.46,2.26A7.44,7.44,0,0,1,19.73,12.14Z"/><path class="cls-1" d="M30.56,25a8.76,8.76,0,0,1-6.44-2.66,8.76,8.76,0,0,1-2.66-6.44V4.42H39.64V15.91A8.76,8.76,0,0,1,37,22.35,8.74,8.74,0,0,1,30.56,25Z"/><path class="cls-1" d="M47.09,4.42V19.3h12V25H41.37V4.42Z"/><path class="cls-1" d="M78.55,12.14a7.44,7.44,0,0,1-2.26,5.46,7.48,7.48,0,0,1-5.46,2.26H66.54V25H60.82V4.42h10a7.44,7.44,0,0,1,5.46,2.26A7.44,7.44,0,0,1,78.55,12.14Z"/><path class="cls-2" d="M21.81,9.68a7.45,7.45,0,0,1-2.27,5.46,7.4,7.4,0,0,1-5.45,2.26H9.8v5.16H4.08V2h10a7.44,7.44,0,0,1,5.45,2.26A7.45,7.45,0,0,1,21.81,9.68Z"/><path class="cls-2" d="M32.63,22.56a8.74,8.74,0,0,1-6.43-2.67,8.77,8.77,0,0,1-2.67-6.44V2H41.72V13.45a8.8,8.8,0,0,1-2.66,6.44A8.76,8.76,0,0,1,32.63,22.56Z"/><path class="cls-2" d="M49.16,2V16.84h12v5.72H43.45V2Z"/><path class="cls-2" d="M80.63,9.68a7.48,7.48,0,0,1-2.26,5.46,7.44,7.44,0,0,1-5.46,2.26H68.62v5.16H62.9V2h10a7.48,7.48,0,0,1,5.46,2.26A7.48,7.48,0,0,1,80.63,9.68Z"/><path class="cls-3" d="M3.51,31.46V28H5.69v.27H3.81v1.27H5.66v.27H3.81v1.36H5.69v.27Z"/><path class="cls-3" d="M7.55,31.12l.16-.19a1.05,1.05,0,0,0,.81.36c.41,0,.66-.21.66-.5,0-.68-1.57-.3-1.57-1.19,0-.38.32-.69.89-.69a1.15,1.15,0,0,1,.89.36l-.15.19a.93.93,0,0,0-.74-.33c-.39,0-.62.2-.62.46,0,.62,1.56.24,1.56,1.2,0,.4-.31.73-.93.73A1.2,1.2,0,0,1,7.55,31.12Z"/><path class="cls-3" d="M11.54,31V29.21h-.41V29h.41v-.68h.28V29h.5v.24h-.5v1.73c0,.2.08.34.25.34a.39.39,0,0,0,.28-.12l.11.21a.59.59,0,0,1-.43.15C11.7,31.52,11.54,31.32,11.54,31Z"/><path class="cls-3" d="M16,31.46v-.37a1.27,1.27,0,0,1-.9.43.7.7,0,0,1-.79-.8V29h.27v1.69c0,.48.24.62.61.62a1.09,1.09,0,0,0,.81-.41V29h.26v2.49Z"/><path class="cls-3" d="M20.24,31.46v-.4a1,1,0,0,1-.86.46c-.66,0-1.11-.5-1.11-1.3a1.16,1.16,0,0,1,1.11-1.31,1,1,0,0,1,.86.46V28h.28v3.44Zm0-.62V29.6a1,1,0,0,0-.82-.45c-.55,0-.87.46-.87,1.07s.32,1.06.87,1.06A1,1,0,0,0,20.24,30.84Z"/><path class="cls-3" d="M22.64,28.37a.2.2,0,0,1,.2-.2.2.2,0,0,1,.21.2.21.21,0,1,1-.41,0Zm.07,3.09V29H23v2.49Z"/><path class="cls-3" d="M25,30.21a1.2,1.2,0,1,1,1.19,1.31A1.2,1.2,0,0,1,25,30.21Zm2.1,0a.92.92,0,1,0-1.82,0,.92.92,0,1,0,1.82,0Z"/><path class="cls-3" d="M32.17,31.46V28h2.18v.27H32.46v1.27h1.85v.27H32.46v1.63Z"/><path class="cls-3" d="M36.17,30.21a1.2,1.2,0,1,1,1.19,1.31A1.2,1.2,0,0,1,36.17,30.21Zm2.1,0a.92.92,0,1,0-1.82,0,.92.92,0,1,0,1.82,0Z"/><path class="cls-3" d="M40.66,31V29.21h-.41V29h.41v-.68h.28V29h.5v.24h-.5v1.73c0,.2.08.34.25.34a.39.39,0,0,0,.28-.12l.11.21a.59.59,0,0,1-.43.15C40.82,31.52,40.66,31.32,40.66,31Z"/><path class="cls-3" d="M43.25,30.21a1.2,1.2,0,1,1,2.39,0,1.2,1.2,0,1,1-2.39,0Zm2.1,0a.92.92,0,1,0-.91,1.07A1,1,0,0,0,45.35,30.21Z"/><path class="cls-3" d="M47.69,32.09l.16-.21a.94.94,0,0,0,.83.35.75.75,0,0,0,.84-.79V31a1,1,0,0,1-.86.47c-.66,0-1.11-.5-1.11-1.3a1.15,1.15,0,0,1,1.11-1.3,1.06,1.06,0,0,1,.86.46V29h.28v2.47a1,1,0,0,1-1.12,1A1.21,1.21,0,0,1,47.69,32.09Zm1.83-1.28V29.6a1,1,0,0,0-.82-.45c-.55,0-.87.46-.87,1.06s.32,1.06.87,1.06A1,1,0,0,0,49.52,30.81Z"/><path class="cls-3" d="M52,31.46V29h.27v.43a1.07,1.07,0,0,1,.84-.48v.29H53a1,1,0,0,0-.71.44v1.82Z"/><path class="cls-3" d="M56.81,31.46v-.4a1.07,1.07,0,0,1-.87.46c-.66,0-1.11-.5-1.11-1.3a1.16,1.16,0,0,1,1.11-1.31,1.06,1.06,0,0,1,.87.46V29h.27v2.49Zm0-.62V29.6a1,1,0,0,0-.82-.45c-.55,0-.87.46-.87,1.07s.32,1.06.87,1.06A1,1,0,0,0,56.81,30.84Z"/><path class="cls-3" d="M59.36,31.46V29.21H59V29h.41v-.23c0-.49.27-.77.68-.77a.6.6,0,0,1,.33.08l-.08.22a.39.39,0,0,0-.23-.06c-.28,0-.42.2-.42.53V29h.5v.24h-.5v2.25Zm1.21-3.09a.21.21,0,0,1,.21-.2.2.2,0,0,1,.2.2.21.21,0,0,1-.2.21A.22.22,0,0,1,60.57,28.37Zm.07,3.09V29h.27v2.49Z"/><path class="cls-3" d="M63,30.21a1.2,1.2,0,0,1,1.2-1.3,1.05,1.05,0,0,1,.89.42l-.19.16a.8.8,0,0,0-.68-.34,1.07,1.07,0,0,0,0,2.13.79.79,0,0,0,.68-.35l.19.16a1,1,0,0,1-.89.43A1.21,1.21,0,0,1,63,30.21Z"/><path class="cls-3" d="M66.86,30.21a1.2,1.2,0,1,1,1.19,1.31A1.2,1.2,0,0,1,66.86,30.21Zm2.11,0a.93.93,0,1,0-.92,1.07A1,1,0,0,0,69,30.21Z"/><rect class="cls-3" x="3.83" y="26.02" width="65.04" height="0.5"/></svg>